<svg id="SvgjsSvg1292" width="1187.0000305175781" height="659.9250335693359" xmlns="http://www.w3.org/2000/svg" version="1.1" xmlns:xlink="http://www.w3.org/1999/xlink" xmlns:svgjs="http://svgjs.com/svgjs"><defs id="SvgjsDefs1293"><pattern id="SvgjsPattern1296" x="0" y="0" width="43" height="42" patternUnits="userSpaceOnUse"><image id="SvgjsImage1297" xlink:href="https://iconsapi.com/5ee264d6e4b0b788a93304c5.svg" width="43" height="42" preserveAspectRatio="none" crossOrigin="anonymous" x="0" y="0"></image></pattern><pattern id="SvgjsPattern1306" x="0" y="0" width="43" height="42" patternUnits="userSpaceOnUse"><image id="SvgjsImage1307" xlink:href="https://iconsapi.com/5ee264d6e4b0b788a93304c5.svg" width="43" height="42" preserveAspectRatio="none" crossOrigin="anonymous" x="0" y="0"></image></pattern><marker id="SvgjsMarker1322" markerWidth="16" markerHeight="12" refX="16" refY="6" viewBox="0 0 16 12" orient="auto" markerUnits="userSpaceOnUse" stroke-dasharray="0,0"><path id="SvgjsPath1323" d="M0,2 L14,6 L0,11 L0,2" fill="#323232" stroke="#323232" stroke-width="2"></path></marker><marker id="SvgjsMarker1382" markerWidth="16" markerHeight="12" refX="16" refY="6" viewBox="0 0 16 12" orient="auto" markerUnits="userSpaceOnUse" stroke-dasharray="0,0"><path id="SvgjsPath1383" d="M0,2 L14,6 L0,11 L0,2" fill="#323232" stroke="#323232" stroke-width="2"></path></marker><marker id="SvgjsMarker1386" markerWidth="16" markerHeight="12" refX="16" refY="6" viewBox="0 0 16 12" orient="auto" markerUnits="userSpaceOnUse" stroke-dasharray="0,0"><path id="SvgjsPath1387" d="M0,2 L14,6 L0,11 L0,2" fill="#323232" stroke="#323232" stroke-width="2"></path></marker><marker id="SvgjsMarker1390" markerWidth="16" markerHeight="12" refX="16" refY="6" viewBox="0 0 16 12" orient="auto" markerUnits="userSpaceOnUse" stroke-dasharray="0,0"><path id="SvgjsPath1391" d="M0,2 L14,6 L0,11 L0,2" fill="#323232" stroke="#323232" stroke-width="2"></path></marker><marker id="SvgjsMarker1406" markerWidth="16" markerHeight="12" refX="16" refY="6" viewBox="0 0 16 12" orient="auto" markerUnits="userSpaceOnUse" stroke-dasharray="0,0"><path id="SvgjsPath1407" d="M0,2 L14,6 L0,11 L0,2" fill="#323232" stroke="#323232" stroke-width="2"></path></marker><marker id="SvgjsMarker1422" markerWidth="16" markerHeight="12" refX="16" refY="6" viewBox="0 0 16 12" orient="auto" markerUnits="userSpaceOnUse" stroke-dasharray="0,0"><path id="SvgjsPath1423" d="M0,2 L14,6 L0,11 L0,2" fill="#323232" stroke="#323232" stroke-width="2"></path></marker><marker id="SvgjsMarker1426" markerWidth="16" markerHeight="12" refX="16" refY="6" viewBox="0 0 16 12" orient="auto" markerUnits="userSpaceOnUse" stroke-dasharray="0,0"><path id="SvgjsPath1427" d="M0,2 L14,6 L0,11 L0,2" fill="#323232" stroke="#323232" stroke-width="2"></path></marker><marker id="SvgjsMarker1442" markerWidth="16" markerHeight="12" refX="16" refY="6" viewBox="0 0 16 12" orient="auto" markerUnits="userSpaceOnUse" stroke-dasharray="0,0"><path id="SvgjsPath1443" d="M0,2 L14,6 L0,11 L0,2" fill="#323232" stroke="#323232" stroke-width="2"></path></marker><marker id="SvgjsMarker1460" markerWidth="16" markerHeight="12" refX="16" refY="6" viewBox="0 0 16 12" orient="auto" markerUnits="userSpaceOnUse" stroke-dasharray="0,0"><path id="SvgjsPath1461" d="M0,2 L14,6 L0,11 L0,2" fill="#323232" stroke="#323232" stroke-width="2"></path></marker><marker id="SvgjsMarker1482" markerWidth="16" markerHeight="12" refX="16" refY="6" viewBox="0 0 16 12" orient="auto" markerUnits="userSpaceOnUse" stroke-dasharray="0,0"><path id="SvgjsPath1483" d="M0,2 L14,6 L0,11 L0,2" fill="#323232" stroke="#323232" stroke-width="2"></path></marker><marker id="SvgjsMarker1512" markerWidth="16" markerHeight="12" refX="16" refY="6" viewBox="0 0 16 12" orient="auto" markerUnits="userSpaceOnUse" stroke-dasharray="0,0"><path id="SvgjsPath1513" d="M0,2 L14,6 L0,11 L0,2" fill="#323232" stroke="#323232" stroke-width="2"></path></marker><marker id="SvgjsMarker1516" markerWidth="16" markerHeight="12" refX="16" refY="6" viewBox="0 0 16 12" orient="auto" markerUnits="userSpaceOnUse" stroke-dasharray="0,0"><path id="SvgjsPath1517" d="M0,2 L14,6 L0,11 L0,2" fill="#323232" stroke="#323232" stroke-width="2"></path></marker><marker id="SvgjsMarker1546" markerWidth="16" markerHeight="12" refX="16" refY="6" viewBox="0 0 16 12" orient="auto" markerUnits="userSpaceOnUse" stroke-dasharray="0,0"><path id="SvgjsPath1547" d="M0,2 L14,6 L0,11 L0,2" fill="#323232" stroke="#323232" stroke-width="2"></path></marker><marker id="SvgjsMarker1556" markerWidth="16" markerHeight="12" refX="16" refY="6" viewBox="0 0 16 12" orient="auto" markerUnits="userSpaceOnUse" stroke-dasharray="0,0"><path id="SvgjsPath1557" d="M0,2 L14,6 L0,11 L0,2" fill="#323232" stroke="#323232" stroke-width="2"></path></marker><marker id="SvgjsMarker1560" markerWidth="16" markerHeight="12" refX="16" refY="6" viewBox="0 0 16 12" orient="auto" markerUnits="userSpaceOnUse" stroke-dasharray="0,0"><path id="SvgjsPath1561" d="M0,2 L14,6 L0,11 L0,2" fill="#323232" stroke="#323232" stroke-width="2"></path></marker><marker id="SvgjsMarker1570" markerWidth="16" markerHeight="12" refX="16" refY="6" viewBox="0 0 16 12" orient="auto" markerUnits="userSpaceOnUse" stroke-dasharray="0,0"><path id="SvgjsPath1571" d="M0,2 L14,6 L0,11 L0,2" fill="#323232" stroke="#323232" stroke-width="2"></path></marker></defs><g id="SvgjsG1294" transform="translate(328.79998779296875,25)"><path id="SvgjsPath1295" d="M 0 0L 43 0L 43 42L 0 42Z" stroke="none" fill="url(#SvgjsPattern1296)"></path></g><g id="SvgjsG1298" transform="translate(290.29998779296875,56)"><path id="SvgjsPath1299" d="M 0 0L 120 0L 120 42L 0 42Z" stroke="none" fill="none"></path><g id="SvgjsG1300"><text id="SvgjsText1301" font-family="微软雅黑" text-anchor="middle" font-size="13px" width="120px" fill="#323232" font-weight="700" align="middle" anchor="middle" family="微软雅黑" size="13px" weight="700" font-style="" opacity="1" y="11.05" transform="rotate(0)"><tspan id="SvgjsTspan1302" dy="16" x="60"><tspan id="SvgjsTspan1303" style="text-decoration:;">客户端普通用户</tspan></tspan></text></g></g><g id="SvgjsG1304" transform="translate(768.2999877929688,25)"><path id="SvgjsPath1305" d="M 0 0L 43 0L 43 42L 0 42Z" stroke="none" fill="url(#SvgjsPattern1306)"></path></g><g id="SvgjsG1308" transform="translate(729.2999877929688,56)"><path id="SvgjsPath1309" d="M 0 0L 120 0L 120 42L 0 42Z" stroke="none" fill="none"></path><g id="SvgjsG1310"><text id="SvgjsText1311" font-family="微软雅黑" text-anchor="middle" font-size="13px" width="120px" fill="#323232" font-weight="400" align="middle" anchor="middle" family="微软雅黑" size="13px" weight="400" font-style="" opacity="1" y="11.05" transform="rotate(0)"><tspan id="SvgjsTspan1312" dy="16" x="60"><tspan id="SvgjsTspan1313" style="text-decoration:;font-weight: bold;">客户端root用户</tspan></tspan></text></g></g><g id="SvgjsG1314" transform="translate(264.79998779296875,137.5999984741211)"><path id="SvgjsPath1315" d="M 0 21L 21 0L 150 0L 171 21L 150 42L 21 42L 0 21Z" stroke="rgba(50,50,50,1)" stroke-width="2" fill-opacity="1" fill="#00cccc"></path><g id="SvgjsG1316"><text id="SvgjsText1317" font-family="微软雅黑" text-anchor="middle" font-size="13px" width="151px" fill="#323232" font-weight="400" align="middle" anchor="middle" family="微软雅黑" size="13px" weight="400" font-style="" opacity="1" y="11.05" transform="rotate(0)"><tspan id="SvgjsTspan1318" dy="16" x="85.5"><tspan id="SvgjsTspan1319" style="text-decoration:;">是否设置 all_squash</tspan></tspan></text></g></g><g id="SvgjsG1320"><path id="SvgjsPath1321" d="M350.29998779296875 98L350.29998779296875 117.79999923706055L350.29998779296875 117.79999923706055L350.29998779296875 137.5999984741211" stroke="#323232" stroke-width="2" fill="none" marker-end="url(#SvgjsMarker1322)"></path></g><g id="SvgjsG1324" transform="translate(54.99999237060547,237.5999984741211)"><path id="SvgjsPath1325" d="M 0 21L 21 0L 150 0L 171 21L 150 42L 21 42L 0 21Z" stroke="rgba(50,50,50,1)" stroke-width="2" fill-opacity="1" fill="#00cccc"></path><g id="SvgjsG1326"><text id="SvgjsText1327" font-family="微软雅黑" text-anchor="middle" font-size="13px" width="151px" fill="#323232" font-weight="400" align="middle" anchor="middle" family="微软雅黑" size="13px" weight="400" font-style="" opacity="1" y="3.05" transform="rotate(0)"><tspan id="SvgjsTspan1328" dy="16" x="85.5"><tspan id="SvgjsTspan1329" style="text-decoration:;">是否设置 anonuid 和 </tspan></tspan><tspan id="SvgjsTspan1330" dy="16" x="85.5"><tspan id="SvgjsTspan1331" style="text-decoration:;">anongid</tspan></tspan></text></g></g><g id="SvgjsG1332" transform="translate(476.79998779296875,295.5999984741211)"><path id="SvgjsPath1333" d="M 0 21L 21 0L 150 0L 171 21L 150 42L 21 42L 0 21Z" stroke="rgba(50,50,50,1)" stroke-width="2" fill-opacity="1" fill="#00cccc"></path><g id="SvgjsG1334"><text id="SvgjsText1335" font-family="微软雅黑" text-anchor="middle" font-size="13px" width="151px" fill="#323232" font-weight="400" align="middle" anchor="middle" family="微软雅黑" size="13px" weight="400" font-style="" opacity="1" y="3.05" transform="rotate(0)"><tspan id="SvgjsTspan1336" dy="16" x="85.5"><tspan id="SvgjsTspan1337" style="text-decoration:;">NFS 服务器上是否有同 </tspan></tspan><tspan id="SvgjsTspan1338" dy="16" x="85.5"><tspan id="SvgjsTspan1339" style="text-decoration:;">uid 用户</tspan></tspan></text></g></g><g id="SvgjsG1340" transform="translate(502.29998779296875,195.5999984741211)"><path id="SvgjsPath1341" d="M 0 0L 120 0L 120 31L 0 31Z" stroke="rgba(50,50,50,1)" stroke-width="2" fill-opacity="1" fill="#ffffff"></path><g id="SvgjsG1342"><text id="SvgjsText1343" font-family="微软雅黑" text-anchor="middle" font-size="13px" width="100px" fill="#323232" font-weight="400" align="middle" anchor="middle" family="微软雅黑" size="13px" weight="400" font-style="" opacity="1" y="5.55" transform="rotate(0)"><tspan id="SvgjsTspan1344" dy="16" x="60"><tspan id="SvgjsTspan1345" style="text-decoration:;">使用默认值</tspan></tspan></text></g></g><g id="SvgjsG1346" transform="translate(502.29998779296875,226.5999984741211)"><path id="SvgjsPath1347" d="M 0 0L 120 0L 120 31L 0 31Z" stroke="rgba(50,50,50,1)" stroke-width="2" fill-opacity="1" fill="#00cccc"></path><g id="SvgjsG1348"><text id="SvgjsText1349" font-family="微软雅黑" text-anchor="middle" font-size="13px" width="100px" fill="#323232" font-weight="400" align="middle" anchor="middle" family="微软雅黑" size="13px" weight="400" font-style="" opacity="1" y="5.55" transform="rotate(0)"><tspan id="SvgjsTspan1350" dy="16" x="60"><tspan id="SvgjsTspan1351" style="text-decoration:;">no_all_squash</tspan></tspan></text></g></g><g id="SvgjsG1352" transform="translate(268.79998779296875,377.6000003814697)"><path id="SvgjsPath1353" d="M 0 4Q 0 0 4 0L 159 0Q 163 0 163 4L 163 27Q 163 31 159 31L 4 31Q 0 31 0 27Z" stroke="rgba(50,50,50,1)" stroke-width="2" fill-opacity="1" fill="#ffcccc"></path><g id="SvgjsG1354"><text id="SvgjsText1355" font-family="微软雅黑" text-anchor="middle" font-size="13px" width="143px" fill="#323232" font-weight="400" align="middle" anchor="middle" family="微软雅黑" size="13px" weight="400" font-style="" opacity="1" y="5.55" transform="rotate(0)"><tspan id="SvgjsTspan1356" dy="16" x="81.5"><tspan id="SvgjsTspan1357" style="text-decoration:;">设置为指定用户</tspan></tspan></text></g></g><g id="SvgjsG1358" transform="translate(268.79998779296875,422.2666670481364)"><path id="SvgjsPath1359" d="M 0 4Q 0 0 4 0L 159 0Q 163 0 163 4L 163 27Q 163 31 159 31L 4 31Q 0 31 0 27Z" stroke="rgba(50,50,50,1)" stroke-width="2" fill-opacity="1" fill="#ffffcc"></path><g id="SvgjsG1360"><text id="SvgjsText1361" font-family="微软雅黑" text-anchor="middle" font-size="13px" width="143px" fill="#323232" font-weight="400" align="middle" anchor="middle" family="微软雅黑" size="13px" weight="400" font-style="" opacity="1" y="5.55" transform="rotate(0)"><tspan id="SvgjsTspan1362" dy="16" x="81.5"><tspan id="SvgjsTspan1363" style="text-decoration:;">设置为同 uid 用户</tspan></tspan></text></g></g><g id="SvgjsG1364" transform="translate(268.79998779296875,466.9333337148031)"><path id="SvgjsPath1365" d="M 0 4Q 0 0 4 0L 159 0Q 163 0 163 4L 163 38Q 163 42 159 42L 4 42Q 0 42 0 38Z" stroke="rgba(50,50,50,1)" stroke-width="2" fill-opacity="1" fill="#ccffcc"></path><g id="SvgjsG1366"><text id="SvgjsText1367" font-family="微软雅黑" text-anchor="middle" font-size="13px" width="143px" fill="#323232" font-weight="400" align="middle" anchor="middle" family="微软雅黑" size="13px" weight="400" font-style="" opacity="1" y="3.05" transform="rotate(0)"><tspan id="SvgjsTspan1368" dy="16" x="81.5"><tspan id="SvgjsTspan1369" style="text-decoration:;">设置为匿名用户 </tspan></tspan><tspan id="SvgjsTspan1370" dy="16" x="81.5"><tspan id="SvgjsTspan1371" style="text-decoration:;">nfsnobody</tspan></tspan></text></g></g><g id="SvgjsG1372" transform="translate(268.79998779296875,522.6000003814697)"><path id="SvgjsPath1373" d="M 0 4Q 0 0 4 0L 159 0Q 163 0 163 4L 163 38Q 163 42 159 42L 4 42Q 0 42 0 38Z" stroke="rgba(50,50,50,1)" stroke-width="2" fill-opacity="1" fill="#cce5ff"></path><g id="SvgjsG1374"><text id="SvgjsText1375" font-family="微软雅黑" text-anchor="middle" font-size="13px" width="143px" fill="#323232" font-weight="400" align="middle" anchor="middle" family="微软雅黑" size="13px" weight="400" font-style="" opacity="1" y="3.05" transform="rotate(0)"><tspan id="SvgjsTspan1376" dy="16" x="81.5"><tspan id="SvgjsTspan1377" style="text-decoration:;">保留登录用户的 uid 和 </tspan></tspan><tspan id="SvgjsTspan1378" dy="16" x="81.5"><tspan id="SvgjsTspan1379" style="text-decoration:;">gid</tspan></tspan></text></g></g><g id="SvgjsG1380"><path id="SvgjsPath1381" d="M264.79998779296875 158.5999984741211L140.49999237060547 158.5999984741211L140.49999237060547 237.5999984741211" stroke="#323232" stroke-width="2" fill="none" marker-end="url(#SvgjsMarker1382)"></path></g><g id="SvgjsG1384"><path id="SvgjsPath1385" d="M435.79998779296875 158.5999984741211L562.2999877929688 158.5999984741211L562.2999877929688 195.5999984741211" stroke="#323232" stroke-width="2" fill="none" marker-end="url(#SvgjsMarker1386)"></path></g><g id="SvgjsG1388"><path id="SvgjsPath1389" d="M562.2999877929688 257.5999984741211L562.2999877929688 276.5999984741211L562.2999877929688 276.5999984741211L562.2999877929688 295.5999984741211" stroke="#323232" stroke-width="2" fill="none" marker-end="url(#SvgjsMarker1390)"></path></g><g id="SvgjsG1392" transform="translate(214.79998779296875,133)"><path id="SvgjsPath1393" d="M 0 0L 32 0L 32 20L 0 20Z" stroke="none" fill="none"></path><g id="SvgjsG1394"><text id="SvgjsText1395" font-family="微软雅黑" text-anchor="middle" font-size="16px" width="32px" fill="#323232" font-weight="700" align="middle" anchor="middle" family="微软雅黑" size="16px" weight="700" font-style="" opacity="1" y="-2.4" transform="rotate(0)"><tspan id="SvgjsTspan1396" dy="20" x="16"><tspan id="SvgjsTspan1397" style="text-decoration:;">Y</tspan></tspan></text></g></g><g id="SvgjsG1398" transform="translate(442.79998779296875,133)"><path id="SvgjsPath1399" d="M 0 0L 32 0L 32 20L 0 20Z" stroke="none" fill="none"></path><g id="SvgjsG1400"><text id="SvgjsText1401" font-family="微软雅黑" text-anchor="middle" font-size="16px" width="32px" fill="#323232" font-weight="700" align="middle" anchor="middle" family="微软雅黑" size="16px" weight="700" font-style="" opacity="1" y="-2.4" transform="rotate(0)"><tspan id="SvgjsTspan1402" dy="20" x="16"><tspan id="SvgjsTspan1403" style="text-decoration:;">N</tspan></tspan></text></g></g><g id="SvgjsG1404"><path id="SvgjsPath1405" d="M225.99999237060547 258.5999984741211L247.3999900817871 258.5999984741211L247.3999900817871 487.9333337148031L268.79998779296875 487.9333337148031" stroke="#323232" stroke-width="2" fill="none" marker-end="url(#SvgjsMarker1406)"></path></g><g id="SvgjsG1408" transform="translate(250.79998779296875,267)"><path id="SvgjsPath1409" d="M 0 0L 32 0L 32 20L 0 20Z" stroke="none" fill="none"></path><g id="SvgjsG1410"><text id="SvgjsText1411" font-family="微软雅黑" text-anchor="middle" font-size="16px" width="32px" fill="#323232" font-weight="700" align="middle" anchor="middle" family="微软雅黑" size="16px" weight="700" font-style="" opacity="1" y="-2.4" transform="rotate(0)"><tspan id="SvgjsTspan1412" dy="20" x="16"><tspan id="SvgjsTspan1413" style="text-decoration:;">N</tspan></tspan></text></g></g><g id="SvgjsG1414" transform="translate(31.79998779296875,230)"><path id="SvgjsPath1415" d="M 0 0L 32 0L 32 20L 0 20Z" stroke="none" fill="none"></path><g id="SvgjsG1416"><text id="SvgjsText1417" font-family="微软雅黑" text-anchor="middle" font-size="16px" width="32px" fill="#323232" font-weight="700" align="middle" anchor="middle" family="微软雅黑" size="16px" weight="700" font-style="" opacity="1" y="-2.4" transform="rotate(0)"><tspan id="SvgjsTspan1418" dy="20" x="16"><tspan id="SvgjsTspan1419" style="text-decoration:;">Y</tspan></tspan></text></g></g><g id="SvgjsG1420"><path id="SvgjsPath1421" d="M54.99999237060547 258.5999984741211L24.99999237060547 258.5999984741211L24.99999237060547 393.1000003814697L268.79998779296875 393.1000003814697" stroke="#323232" stroke-width="2" fill="none" marker-end="url(#SvgjsMarker1422)"></path></g><g id="SvgjsG1424"><path id="SvgjsPath1425" d="M562.2999877929688 337.5999984741211L562.2999877929688 543.6000003814697L431.79998779296875 543.6000003814697" stroke="#323232" stroke-width="2" fill="none" marker-end="url(#SvgjsMarker1426)"></path></g><g id="SvgjsG1428" transform="translate(567.7999877929688,345)"><path id="SvgjsPath1429" d="M 0 0L 32 0L 32 20L 0 20Z" stroke="none" fill="none"></path><g id="SvgjsG1430"><text id="SvgjsText1431" font-family="微软雅黑" text-anchor="middle" font-size="16px" width="32px" fill="#323232" font-weight="700" align="middle" anchor="middle" family="微软雅黑" size="16px" weight="700" font-style="" opacity="1" y="-2.4" transform="rotate(0)"><tspan id="SvgjsTspan1432" dy="20" x="16"><tspan id="SvgjsTspan1433" style="text-decoration:;">N</tspan></tspan></text></g></g><g id="SvgjsG1434" transform="translate(407.79998779296875,291)"><path id="SvgjsPath1435" d="M 0 0L 32 0L 32 20L 0 20Z" stroke="none" fill="none"></path><g id="SvgjsG1436"><text id="SvgjsText1437" font-family="微软雅黑" text-anchor="middle" font-size="16px" width="32px" fill="#323232" font-weight="700" align="middle" anchor="middle" family="微软雅黑" size="16px" weight="700" font-style="" opacity="1" y="-2.4" transform="rotate(0)"><tspan id="SvgjsTspan1438" dy="20" x="16"><tspan id="SvgjsTspan1439" style="text-decoration:;">Y</tspan></tspan></text></g></g><g id="SvgjsG1440"><path id="SvgjsPath1441" d="M476.79998779296875 316.5999984741211L454.29998779296875 316.5999984741211L454.29998779296875 437.7666670481364L431.79998779296875 437.7666670481364" stroke="#323232" stroke-width="2" fill="none" marker-end="url(#SvgjsMarker1442)"></path></g><g id="SvgjsG1444" transform="translate(704.2999877929688,119.5999984741211)"><path id="SvgjsPath1445" d="M 0 21L 21 0L 150 0L 171 21L 150 42L 21 42L 0 21Z" stroke="rgba(50,50,50,1)" stroke-width="2" fill-opacity="1" fill="#00cccc"></path><g id="SvgjsG1446"><text id="SvgjsText1447" font-family="微软雅黑" text-anchor="middle" font-size="13px" width="151px" fill="#323232" font-weight="400" align="middle" anchor="middle" family="微软雅黑" size="13px" weight="400" font-style="" opacity="1" y="11.05" transform="rotate(0)"><tspan id="SvgjsTspan1448" dy="16" x="85.5"><tspan id="SvgjsTspan1449" style="text-decoration:;">是否设置 all_squash</tspan></tspan></text></g></g><g id="SvgjsG1450" transform="translate(958.9999923706055,430.4333337148031)"><path id="SvgjsPath1451" d="M 0 21L 21 0L 150 0L 171 21L 150 42L 21 42L 0 21Z" stroke="rgba(50,50,50,1)" stroke-width="2" fill-opacity="1" fill="#00cccc"></path><g id="SvgjsG1452"><text id="SvgjsText1453" font-family="微软雅黑" text-anchor="middle" font-size="13px" width="151px" fill="#323232" font-weight="400" align="middle" anchor="middle" family="微软雅黑" size="13px" weight="400" font-style="" opacity="1" y="3.05" transform="rotate(0)"><tspan id="SvgjsTspan1454" dy="16" x="85.5"><tspan id="SvgjsTspan1455" style="text-decoration:;">是否设置 anonuid 和 </tspan></tspan><tspan id="SvgjsTspan1456" dy="16" x="85.5"><tspan id="SvgjsTspan1457" style="text-decoration:;">anongid</tspan></tspan></text></g></g><g id="SvgjsG1458"><path id="SvgjsPath1459" d="M875.2999877929688 140.5999984741211L1044.4999923706055 140.5999984741211L1044.4999923706055 430.4333337148031" stroke="#323232" stroke-width="2" fill="none" marker-end="url(#SvgjsMarker1460)"></path></g><g id="SvgjsG1462" transform="translate(871.2999877929688,113)"><path id="SvgjsPath1463" d="M 0 0L 32 0L 32 20L 0 20Z" stroke="none" fill="none"></path><g id="SvgjsG1464"><text id="SvgjsText1465" font-family="微软雅黑" text-anchor="middle" font-size="16px" width="32px" fill="#323232" font-weight="700" align="middle" anchor="middle" family="微软雅黑" size="16px" weight="700" font-style="" opacity="1" y="-2.4" transform="rotate(0)"><tspan id="SvgjsTspan1466" dy="20" x="16"><tspan id="SvgjsTspan1467" style="text-decoration:;">Y</tspan></tspan></text></g></g><g id="SvgjsG1468" transform="translate(729.7999877929688,209)"><path id="SvgjsPath1469" d="M 0 0L 120 0L 120 31L 0 31Z" stroke="rgba(50,50,50,1)" stroke-width="2" fill-opacity="1" fill="#ffffff"></path><g id="SvgjsG1470"><text id="SvgjsText1471" font-family="微软雅黑" text-anchor="middle" font-size="13px" width="100px" fill="#323232" font-weight="400" align="middle" anchor="middle" family="微软雅黑" size="13px" weight="400" font-style="" opacity="1" y="5.55" transform="rotate(0)"><tspan id="SvgjsTspan1472" dy="16" x="60"><tspan id="SvgjsTspan1473" style="text-decoration:;">使用默认值</tspan></tspan></text></g></g><g id="SvgjsG1474" transform="translate(729.7999877929688,240)"><path id="SvgjsPath1475" d="M 0 0L 120 0L 120 31L 0 31Z" stroke="rgba(50,50,50,1)" stroke-width="2" fill-opacity="1" fill="#00cccc"></path><g id="SvgjsG1476"><text id="SvgjsText1477" font-family="微软雅黑" text-anchor="middle" font-size="13px" width="100px" fill="#323232" font-weight="400" align="middle" anchor="middle" family="微软雅黑" size="13px" weight="400" font-style="" opacity="1" y="5.55" transform="rotate(0)"><tspan id="SvgjsTspan1478" dy="16" x="60"><tspan id="SvgjsTspan1479" style="text-decoration:;">no_all_squash</tspan></tspan></text></g></g><g id="SvgjsG1480"><path id="SvgjsPath1481" d="M789.7999877929688 161.5999984741211L789.7999877929688 185.29999923706055L789.7999877929688 185.29999923706055L789.7999877929688 209" stroke="#323232" stroke-width="2" fill="none" marker-end="url(#SvgjsMarker1482)"></path></g><g id="SvgjsG1484" transform="translate(792.7999877929688,168)"><path id="SvgjsPath1485" d="M 0 0L 32 0L 32 20L 0 20Z" stroke="none" fill="none"></path><g id="SvgjsG1486"><text id="SvgjsText1487" font-family="微软雅黑" text-anchor="middle" font-size="16px" width="32px" fill="#323232" font-weight="700" align="middle" anchor="middle" family="微软雅黑" size="16px" weight="700" font-style="" opacity="1" y="-2.4" transform="rotate(0)"><tspan id="SvgjsTspan1488" dy="20" x="16"><tspan id="SvgjsTspan1489" style="text-decoration:;">N</tspan></tspan></text></g></g><g id="SvgjsG1490" transform="translate(704.2999877929688,334)"><path id="SvgjsPath1491" d="M 0 21L 21 0L 150 0L 171 21L 150 42L 21 42L 0 21Z" stroke="rgba(50,50,50,1)" stroke-width="2" fill-opacity="1" fill="#00cccc"></path><g id="SvgjsG1492"><text id="SvgjsText1493" font-family="微软雅黑" text-anchor="middle" font-size="13px" width="151px" fill="#323232" font-weight="400" align="middle" anchor="middle" family="微软雅黑" size="13px" weight="400" font-style="" opacity="1" y="3.05" transform="rotate(0)"><tspan id="SvgjsTspan1494" dy="16" x="85.5"><tspan id="SvgjsTspan1495" style="text-decoration:;">是否设置 </tspan></tspan><tspan id="SvgjsTspan1496" dy="16" x="85.5"><tspan id="SvgjsTspan1497" style="text-decoration:;">no_root_squash</tspan></tspan></text></g></g><g id="SvgjsG1498" transform="translate(729.7999877929688,404.9333337148031)"><path id="SvgjsPath1499" d="M 0 0L 120 0L 120 31L 0 31Z" stroke="rgba(50,50,50,1)" stroke-width="2" fill-opacity="1" fill="#ffffff"></path><g id="SvgjsG1500"><text id="SvgjsText1501" font-family="微软雅黑" text-anchor="middle" font-size="13px" width="100px" fill="#323232" font-weight="400" align="middle" anchor="middle" family="微软雅黑" size="13px" weight="400" font-style="" opacity="1" y="5.55" transform="rotate(0)"><tspan id="SvgjsTspan1502" dy="16" x="60"><tspan id="SvgjsTspan1503" style="text-decoration:;">使用默认值</tspan></tspan></text></g></g><g id="SvgjsG1504" transform="translate(729.7999877929688,435.9333337148031)"><path id="SvgjsPath1505" d="M 0 0L 120 0L 120 31L 0 31Z" stroke="rgba(50,50,50,1)" stroke-width="2" fill-opacity="1" fill="#00cccc"></path><g id="SvgjsG1506"><text id="SvgjsText1507" font-family="微软雅黑" text-anchor="middle" font-size="13px" width="100px" fill="#323232" font-weight="400" align="middle" anchor="middle" family="微软雅黑" size="13px" weight="400" font-style="" opacity="1" y="5.55" transform="rotate(0)"><tspan id="SvgjsTspan1508" dy="16" x="60"><tspan id="SvgjsTspan1509" style="text-decoration:;">root_squash</tspan></tspan></text></g></g><g id="SvgjsG1510"><path id="SvgjsPath1511" d="M789.7999877929688 271L789.7999877929688 302.5L789.7999877929688 302.5L789.7999877929688 334" stroke="#323232" stroke-width="2" fill="none" marker-end="url(#SvgjsMarker1512)"></path></g><g id="SvgjsG1514"><path id="SvgjsPath1515" d="M789.7999877929688 376L789.7999877929688 390.46666685740155L789.7999877929688 390.46666685740155L789.7999877929688 404.9333337148031" stroke="#323232" stroke-width="2" fill="none" marker-end="url(#SvgjsMarker1516)"></path></g><g id="SvgjsG1518" transform="translate(796.7999877929688,381)"><path id="SvgjsPath1519" d="M 0 0L 32 0L 32 20L 0 20Z" stroke="none" fill="none"></path><g id="SvgjsG1520"><text id="SvgjsText1521" font-family="微软雅黑" text-anchor="middle" font-size="16px" width="32px" fill="#323232" font-weight="700" align="middle" anchor="middle" family="微软雅黑" size="16px" weight="700" font-style="" opacity="1" y="-2.4" transform="rotate(0)"><tspan id="SvgjsTspan1522" dy="20" x="16"><tspan id="SvgjsTspan1523" style="text-decoration:;">N</tspan></tspan></text></g></g><g id="SvgjsG1524" transform="translate(708.2999877929688,499.6000003814697)"><path id="SvgjsPath1525" d="M 0 4Q 0 0 4 0L 159 0Q 163 0 163 4L 163 27Q 163 31 159 31L 4 31Q 0 31 0 27Z" stroke="rgba(50,50,50,1)" stroke-width="2" fill-opacity="1" fill="#ffcccc"></path><g id="SvgjsG1526"><text id="SvgjsText1527" font-family="微软雅黑" text-anchor="middle" font-size="13px" width="143px" fill="#323232" font-weight="400" align="middle" anchor="middle" family="微软雅黑" size="13px" weight="400" font-style="" opacity="1" y="5.55" transform="rotate(0)"><tspan id="SvgjsTspan1528" dy="16" x="81.5"><tspan id="SvgjsTspan1529" style="text-decoration:;">设置为指定用户</tspan></tspan></text></g></g><g id="SvgjsG1530" transform="translate(708.2999877929688,546.2666670481365)"><path id="SvgjsPath1531" d="M 0 4Q 0 0 4 0L 159 0Q 163 0 163 4L 163 27Q 163 31 159 31L 4 31Q 0 31 0 27Z" stroke="rgba(50,50,50,1)" stroke-width="2" fill-opacity="1" fill="#ffffcc"></path><g id="SvgjsG1532"><text id="SvgjsText1533" font-family="微软雅黑" text-anchor="middle" font-size="13px" width="143px" fill="#323232" font-weight="400" align="middle" anchor="middle" family="微软雅黑" size="13px" weight="400" font-style="" opacity="1" y="5.55" transform="rotate(0)"><tspan id="SvgjsTspan1534" dy="16" x="81.5"><tspan id="SvgjsTspan1535" style="text-decoration:;">设置为 root 用户</tspan></tspan></text></g></g><g id="SvgjsG1536" transform="translate(708.2999877929688,592.9333337148032)"><path id="SvgjsPath1537" d="M 0 4Q 0 0 4 0L 159 0Q 163 0 163 4L 163 38Q 163 42 159 42L 4 42Q 0 42 0 38Z" stroke="rgba(50,50,50,1)" stroke-width="2" fill-opacity="1" fill="#ccffcc"></path><g id="SvgjsG1538"><text id="SvgjsText1539" font-family="微软雅黑" text-anchor="middle" font-size="13px" width="143px" fill="#323232" font-weight="400" align="middle" anchor="middle" family="微软雅黑" size="13px" weight="400" font-style="" opacity="1" y="3.05" transform="rotate(0)"><tspan id="SvgjsTspan1540" dy="16" x="81.5"><tspan id="SvgjsTspan1541" style="text-decoration:;">设置为匿名用户 </tspan></tspan><tspan id="SvgjsTspan1542" dy="16" x="81.5"><tspan id="SvgjsTspan1543" style="text-decoration:;">nfsnobody</tspan></tspan></text></g></g><g id="SvgjsG1544"><path id="SvgjsPath1545" d="M704.2999877929688 355L674.2999877929688 355L674.2999877929688 561.7666670481365L708.2999877929688 561.7666670481365" stroke="#323232" stroke-width="2" fill="none" marker-end="url(#SvgjsMarker1546)"></path></g><g id="SvgjsG1548" transform="translate(676.2999877929688,328)"><path id="SvgjsPath1549" d="M 0 0L 32 0L 32 20L 0 20Z" stroke="none" fill="none"></path><g id="SvgjsG1550"><text id="SvgjsText1551" font-family="微软雅黑" text-anchor="middle" font-size="16px" width="32px" fill="#323232" font-weight="700" align="middle" anchor="middle" family="微软雅黑" size="16px" weight="700" font-style="" opacity="1" y="-2.4" transform="rotate(0)"><tspan id="SvgjsTspan1552" dy="20" x="16"><tspan id="SvgjsTspan1553" style="text-decoration:;">Y</tspan></tspan></text></g></g><g id="SvgjsG1554"><path id="SvgjsPath1555" d="M849.7999877929688 451.4333337148031L904.3999900817871 451.4333337148031L904.3999900817871 451.4333337148031L958.9999923706055 451.4333337148031" stroke="#323232" stroke-width="2" fill="none" marker-end="url(#SvgjsMarker1556)"></path></g><g id="SvgjsG1558"><path id="SvgjsPath1559" d="M1044.4999923706055 472.4333337148031L1044.4999923706055 515.1000003814697L871.2999877929688 515.1000003814697" stroke="#323232" stroke-width="2" fill="none" marker-end="url(#SvgjsMarker1560)"></path></g><g id="SvgjsG1562" transform="translate(1013.7999877929688,479.6000003814697)"><path id="SvgjsPath1563" d="M 0 0L 32 0L 32 20L 0 20Z" stroke="none" fill="none"></path><g id="SvgjsG1564"><text id="SvgjsText1565" font-family="微软雅黑" text-anchor="middle" font-size="16px" width="32px" fill="#323232" font-weight="700" align="middle" anchor="middle" family="微软雅黑" size="16px" weight="700" font-style="" opacity="1" y="-2.4" transform="rotate(0)"><tspan id="SvgjsTspan1566" dy="20" x="16"><tspan id="SvgjsTspan1567" style="text-decoration:;">Y</tspan></tspan></text></g></g><g id="SvgjsG1568"><path id="SvgjsPath1569" d="M1129.9999923706055 451.4333337148031L1159.9999923706055 451.4333337148031L1159.9999923706055 613.9333337148032L871.2999877929688 613.9333337148032" stroke="#323232" stroke-width="2" fill="none" marker-end="url(#SvgjsMarker1570)"></path></g><g id="SvgjsG1572" transform="translate(1129.9999923706055,424.6000061035156)"><path id="SvgjsPath1573" d="M 0 0L 32 0L 32 20L 0 20Z" stroke="none" fill="none"></path><g id="SvgjsG1574"><text id="SvgjsText1575" font-family="微软雅黑" text-anchor="middle" font-size="16px" width="32px" fill="#323232" font-weight="700" align="middle" anchor="middle" family="微软雅黑" size="16px" weight="700" font-style="" opacity="1" y="-2.4" transform="rotate(0)"><tspan id="SvgjsTspan1576" dy="20" x="16"><tspan id="SvgjsTspan1577" style="text-decoration:;">N</tspan></tspan></text></g></g></svg>